REM MD5 232ef76cf5ba41e3334cf36971a5352d
FILE "McDonald's - Demo 04 (Europe).bin" BINARY
  TRACK 01 MODE2/2352
    INDEX 01 00:00:00
  TRACK 02 AUDIO
    INDEX 00 21:43:55
    INDEX 01 21:45:55
  TRACK 03 AUDIO
    INDEX 00 24:47:62
    INDEX 01 24:49:62
REM LEADOUT 27:51:19
